<?xml version="1.0" encoding="UTF-8"?>
<svg xmlns="http://www.w3.org/2000/svg" xmlns:xlink="http://www.w3.org/1999/xlink" width="51pt" height="51pt" viewBox="0 0 51 51" version="1.1">
<g id="surface11049">
<path style="fill:none;stroke-width:2;stroke-linecap:butt;stroke-linejoin:round;stroke:rgb(0%,0%,0%);stroke-opacity:1;stroke-miterlimit:10;" d="M 324 640 C 324 645.332031 316 645.332031 316 640 C 316 634.667969 324 634.667969 324 640 Z M 324 640 " transform="matrix(1,0,0,-1,-295,665)"/>
<path style="fill:none;stroke-width:2;stroke-linecap:butt;stroke-linejoin:round;stroke:rgb(0%,0%,0%);stroke-opacity:1;stroke-miterlimit:10;" d="M 332 640 C 332 646.628906 326.628906 652 320 652 C 313.371094 652 308 646.628906 308 640 C 308 633.371094 313.371094 628 320 628 C 326.628906 628 332 633.371094 332 640 Z M 332 640 " transform="matrix(1,0,0,-1,-295,665)"/>
<path style="fill:none;stroke-width:2;stroke-linecap:butt;stroke-linejoin:round;stroke:rgb(0%,0%,0%);stroke-opacity:1;stroke-miterlimit:10;" d="M 340 640 C 340 651.046875 331.046875 660 320 660 C 308.953125 660 300 651.046875 300 640 C 300 628.953125 308.953125 620 320 620 C 331.046875 620 340 628.953125 340 640 Z M 340 640 " transform="matrix(1,0,0,-1,-295,665)"/>
<path style="fill:none;stroke-width:2;stroke-linecap:butt;stroke-linejoin:round;stroke:rgb(0%,0%,0%);stroke-opacity:1;stroke-miterlimit:10;" d="M 296 640 L 316 640 " transform="matrix(1,0,0,-1,-295,665)"/>
<path style="fill:none;stroke-width:2;stroke-linecap:butt;stroke-linejoin:round;stroke:rgb(0%,0%,0%);stroke-opacity:1;stroke-miterlimit:10;" d="M 344 640 L 324 640 " transform="matrix(1,0,0,-1,-295,665)"/>
<path style="fill:none;stroke-width:2;stroke-linecap:butt;stroke-linejoin:round;stroke:rgb(0%,0%,0%);stroke-opacity:1;stroke-miterlimit:10;" d="M 320 664 L 320 644 " transform="matrix(1,0,0,-1,-295,665)"/>
<path style="fill:none;stroke-width:2;stroke-linecap:butt;stroke-linejoin:round;stroke:rgb(0%,0%,0%);stroke-opacity:1;stroke-miterlimit:10;" d="M 320 616 L 320 636 " transform="matrix(1,0,0,-1,-295,665)"/>
</g>
</svg>
